<?xml version="1.0" ?><svg height="512" preserveAspectRatio="xMidYMid" viewBox="0 0 512 512" width="512" xmlns="http://www.w3.org/2000/svg" xmlns:xlink="http://www.w3.org/1999/xlink"><defs><style>
      .cls-1 {
        fill: #3498db;
      }

      .cls-2 {
        fill: #000;
        opacity: 0.3;
      }

      .cls-2, .cls-3 {
        fill-rule: evenodd;
      }

      .cls-3 {
        fill: #fff;
      }
    </style></defs><g><circle class="cls-1" cx="256" cy="256" r="256"/><path class="cls-2" d="M0.767,236.034 C0.259,242.622 0.000,249.281 0.000,256.000 C0.000,397.385 114.615,512.000 256.000,512.000 C263.666,512.000 271.254,511.663 278.749,511.003 L372.366,351.560 C372.366,351.560 375.029,246.069 324.000,193.000 C271.593,138.499 165.458,136.380 165.458,136.380 L0.767,236.034 Z"/><path class="cls-3" d="M384.000,312.392 C384.000,351.940 351.940,384.000 312.392,384.000 C300.159,384.000 278.132,375.464 278.132,375.464 C270.537,376.954 262.688,377.734 254.657,377.734 C187.673,377.734 133.371,323.432 133.371,256.448 C133.371,248.229 134.188,240.202 135.746,232.442 C135.746,232.442 128.000,211.117 128.000,199.608 C128.000,160.060 160.060,128.000 199.608,128.000 C212.068,128.000 234.226,136.874 234.226,136.874 C240.868,135.748 247.694,135.161 254.657,135.161 C321.642,135.161 375.944,189.463 375.944,256.448 C375.944,263.141 375.402,269.707 374.359,276.105 C374.359,276.105 384.000,299.328 384.000,312.392 ZM279.786,214.964 C289.402,223.834 296.861,231.428 305.752,224.008 C317.143,214.502 300.932,178.001 246.521,180.974 C178.320,184.700 178.071,259.155 238.239,266.645 C263.104,269.741 283.197,274.765 284.979,289.902 C286.162,299.950 251.809,326.683 221.091,289.119 C209.784,274.256 186.960,284.882 198.483,308.388 C208.575,328.973 290.579,353.820 314.840,298.946 C326.341,272.935 303.295,245.010 253.819,240.804 C244.951,240.051 228.568,239.062 225.256,221.424 C222.225,205.283 261.389,197.995 279.786,214.964 Z"/></g></svg>